<svg width="33" height="33" viewBox="0 0 33 33" fill="none" xmlns="http://www.w3.org/2000/svg">
<g clip-path="url(#clip0_236_194)">
<path d="M19.9375 16.1562C20.8867 16.1562 21.6562 15.3867 21.6562 14.4375C21.6562 13.4883 20.8867 12.7188 19.9375 12.7188C18.9883 12.7188 18.2188 13.4883 18.2188 14.4375C18.2188 15.3867 18.9883 16.1562 19.9375 16.1562Z" fill="#1C3879"/>
<path d="M13.0625 16.1562C14.0117 16.1562 14.7812 15.3867 14.7812 14.4375C14.7812 13.4883 14.0117 12.7188 13.0625 12.7188C12.1133 12.7188 11.3438 13.4883 11.3438 14.4375C11.3438 15.3867 12.1133 16.1562 13.0625 16.1562Z" fill="#1C3879"/>
<path d="M31.5425 17.4075C31.5975 17.1187 31.625 16.8162 31.625 16.5C31.625 16.1838 31.5975 15.8813 31.5425 15.5925C31.1988 13.5163 29.6725 11.825 27.6787 11.2338C26.95 9.69375 25.9188 8.34625 24.6675 7.2325C22.495 5.29375 19.635 4.125 16.5 4.125C13.365 4.125 10.505 5.29375 8.3325 7.2325C7.0675 8.34625 6.03625 9.7075 5.32125 11.2338C3.3275 11.825 1.80125 13.5025 1.4575 15.5925C1.4025 15.8813 1.375 16.1838 1.375 16.5C1.375 16.8162 1.4025 17.1187 1.4575 17.4075C1.80125 19.4837 3.3275 21.175 5.32125 21.7663C6.03625 23.2925 7.0675 24.64 8.305 25.74C10.4775 27.6925 13.3512 28.875 16.5 28.875C19.6488 28.875 22.5225 27.6925 24.7087 25.74C25.9462 24.64 26.9775 23.2787 27.6925 21.7663C29.6725 21.175 31.1988 19.4975 31.5425 17.4075ZM26.125 19.25C25.9875 19.25 25.8637 19.2225 25.7262 19.2088C25.4512 20.13 25.0525 20.9825 24.5438 21.7663C22.825 24.3925 19.8687 26.125 16.5 26.125C13.1313 26.125 10.175 24.3925 8.45625 21.7663C7.9475 20.9825 7.54875 20.13 7.27375 19.2088C7.13625 19.2225 7.0125 19.25 6.875 19.25C5.3625 19.25 4.125 18.0125 4.125 16.5C4.125 14.9875 5.3625 13.75 6.875 13.75C7.0125 13.75 7.13625 13.7775 7.27375 13.7912C7.54875 12.87 7.9475 12.0175 8.45625 11.2338C10.175 8.6075 13.1313 6.875 16.5 6.875C19.8687 6.875 22.825 8.6075 24.5438 11.2338C25.0525 12.0175 25.4512 12.87 25.7262 13.7912C25.8637 13.7775 25.9875 13.75 26.125 13.75C27.6375 13.75 28.875 14.9875 28.875 16.5C28.875 18.0125 27.6375 19.25 26.125 19.25ZM10.3125 19.25C11.3575 21.6838 13.7362 23.375 16.5 23.375C19.2638 23.375 21.6425 21.6838 22.6875 19.25H10.3125Z" fill="#1C3879"/>
</g>
<defs>
<clipPath id="clip0_236_194">
<rect width="33" height="33" fill="white"/>
</clipPath>
</defs>
</svg>
