<svg width="32" height="33" viewBox="0 0 32 33" fill="none" xmlns="http://www.w3.org/2000/svg">
<path fill-rule="evenodd" clip-rule="evenodd" d="M8.00974 8.24914L0 16.4983L8.04013 24.7491L16.0802 33L21.7782 27.0972C24.9121 23.8507 28.494 20.136 29.7381 18.8422L32 16.49L24.0097 8.245L16.0195 0L8.00974 8.24914ZM25.4217 16.4979C25.4155 16.5128 24.8017 17.1677 24.0579 17.9532L22.7053 19.3814L19.3892 15.9308L16.0732 12.4802L12.7585 15.9308L9.4439 19.3814L8.06623 17.9654C7.30852 17.1866 6.68855 16.5237 6.68855 16.4924C6.68855 16.461 8.79585 14.2664 11.3714 11.6154L16.0543 6.79551L20.7436 11.6332C23.3228 14.2939 25.4279 16.483 25.4217 16.4979ZM19.295 22.7964C19.295 22.8194 18.5641 23.5902 17.6709 24.5091L16.0468 26.18L14.4094 24.4947L12.772 22.8095L14.4233 21.1063L16.0745 19.4032L17.6847 21.0788C18.5703 22.0004 19.295 22.7734 19.295 22.7964Z" fill="#1C3879"/>
</svg>
