<svg width="30" height="29" viewBox="0 0 30 29" fill="none" xmlns="http://www.w3.org/2000/svg">
<path fill-rule="evenodd" clip-rule="evenodd" d="M13.8735 0.035374C12.6965 0.145589 11.7765 0.308863 10.8714 0.568099C10.8077 0.586344 10.7035 0.615564 10.6398 0.63306C10.2817 0.731302 9.6137 0.971296 9.25045 1.13222C9.15755 1.17338 9.07377 1.20705 9.06426 1.20705C8.97575 1.20705 7.59953 1.9039 7.36488 2.06757C7.31286 2.10385 7.26037 2.13353 7.24829 2.13353C7.18978 2.13353 6.01055 2.95293 5.62068 3.26451C4.61923 4.06477 3.70839 4.99097 3.03595 5.89289C2.94829 6.01049 2.85429 6.13389 2.82706 6.16717C2.67034 6.35859 2.12643 7.21256 1.83291 7.72803C1.60076 8.13572 1.21463 8.95847 1.03023 9.43846C0.966229 9.60505 0.900199 9.77342 0.883523 9.81261C0.844789 9.90369 0.659493 10.476 0.600876 10.6856C0.576217 10.7738 0.543149 10.8861 0.527363 10.9351C0.498749 11.024 0.374066 11.5385 0.315841 11.8081C0.0807646 12.896 -0.0260298 14.0482 0.00536355 15.1577C0.0344051 16.1847 0.10047 16.8122 0.277356 17.7411C0.312313 17.9246 0.329738 18.0022 0.417326 18.3647C0.476549 18.6098 0.592822 19.0363 0.635868 19.1665C0.658567 19.2351 0.690281 19.3393 0.706316 19.3981C0.739776 19.5205 0.907184 19.9959 0.963592 20.1286C1.00005 20.2143 1.0412 20.3159 1.10082 20.4671C1.50576 21.4943 2.32922 22.9412 2.97644 23.7628C3.59504 24.548 3.87445 24.8649 4.4484 25.4323C5.66298 26.6329 7.24551 27.7162 8.77791 28.3959C9.24674 28.6038 9.32082 28.6355 9.43713 28.678C9.50573 28.7031 9.59392 28.7363 9.63312 28.752C9.67232 28.7676 9.76051 28.7997 9.8291 28.8232C9.8977 28.8468 9.98589 28.8792 10.0251 28.8952C10.3366 29.0224 10.605 29.0345 10.8328 28.9318C11.0356 28.8403 11.0896 28.7939 11.1795 28.6339C11.2524 28.504 11.2545 28.4591 11.2545 27.0002V25.4999L11.103 25.5253C10.6612 25.5996 10.5215 25.6168 10.1034 25.649C9.39466 25.7035 8.70404 25.6355 8.17979 25.4596C7.6207 25.2719 7.20692 25.0242 6.83408 24.6542C6.64159 24.4631 6.26572 23.9577 6.26572 23.89C6.26572 23.8569 6.05199 23.3929 5.90372 23.104C5.56915 22.4524 5.13178 21.9481 4.59094 21.5907C4.46354 21.5065 4.27515 21.3561 4.17224 21.2565C4.01345 21.1027 3.98516 21.0555 3.98516 20.9445C3.98516 20.8287 4.00041 20.8064 4.11879 20.7491C4.1923 20.7135 4.36206 20.6777 4.49611 20.6695C4.96441 20.641 5.4263 20.7902 5.9272 21.1318C6.36133 21.4277 6.69953 21.7871 6.9748 22.2447C7.24811 22.6992 7.58432 23.0582 7.99396 23.3331C8.34196 23.5667 8.47794 23.6246 8.99584 23.7604C9.18278 23.8094 9.94538 23.8103 10.1926 23.7618C10.4953 23.7024 10.6875 23.6532 10.9159 23.5764C11.2635 23.4595 11.3257 23.4183 11.3257 23.3044C11.3257 23.2491 11.3399 23.1573 11.3572 23.1004C11.3745 23.0436 11.4084 22.925 11.4325 22.8368C11.5353 22.4609 11.7739 21.9882 12.0037 21.705C12.1033 21.5824 12.1756 21.4673 12.1644 21.4492C12.1533 21.4312 12.0522 21.4067 11.9398 21.3949C11.6623 21.3657 11.069 21.2655 10.7645 21.1964C10.267 21.0834 10.2212 21.071 9.7908 20.9327C7.96449 20.3458 6.64946 19.1719 6.01593 17.563C5.69562 16.7494 5.53954 16.011 5.44597 14.8665C5.37673 14.0196 5.4377 13.2126 5.62186 12.5386C5.6406 12.47 5.67078 12.3578 5.68892 12.2892C5.83855 11.7236 6.29209 10.9005 6.77158 10.3243C6.94961 10.1104 6.94993 10.1096 6.90863 9.96128C6.81584 9.62814 6.7971 9.55124 6.74222 9.27811C6.67102 8.92398 6.6619 7.92523 6.72658 7.56768C6.83423 6.97246 7.02882 6.31451 7.13334 6.19247C7.27053 6.03222 8.26752 6.17647 8.93826 6.45359C8.98726 6.47383 9.05941 6.50266 9.09861 6.51763C9.59463 6.70716 10.598 7.24509 11.1054 7.59348C11.2355 7.68282 11.2739 7.69361 11.3548 7.6635C11.4074 7.64394 11.5266 7.61037 11.6197 7.58892C12.4489 7.39764 12.6413 7.36699 13.876 7.22952C14.2931 7.18305 15.6989 7.18305 16.116 7.22952C16.9075 7.31764 17.134 7.34618 17.4013 7.39151C17.8173 7.46203 18.2585 7.55453 18.5565 7.63375L18.7496 7.6851L18.9307 7.5695C19.724 7.06286 20.3067 6.7506 20.9023 6.51285C20.9464 6.49525 21.0186 6.46642 21.0627 6.44882C21.5239 6.26452 22.1629 6.12637 22.5596 6.12523C22.8571 6.12434 22.882 6.14878 23.0224 6.57721C23.3592 7.60563 23.4121 8.73362 23.1665 9.65226C23.1376 9.76005 23.0978 9.90711 23.078 9.97909C23.0434 10.1047 23.049 10.1184 23.2204 10.3243C23.6962 10.8961 24.1509 11.719 24.3011 12.2803C24.3181 12.344 24.3483 12.4562 24.3682 12.5297C24.4797 12.9417 24.5797 13.7061 24.5808 14.1543C24.5819 14.6085 24.4844 15.6412 24.3986 16.0842C24.2809 16.6914 24.0945 17.3078 23.8999 17.7331C23.8436 17.8561 23.7976 17.9631 23.7976 17.9708C23.7976 17.9786 23.716 18.1265 23.6164 18.2996C23.1838 19.0506 22.6399 19.6291 21.9022 20.1227C21.641 20.2975 21.1248 20.5789 20.9186 20.659C20.5119 20.817 20.1144 20.9549 19.7887 21.051C19.5727 21.1147 19.1258 21.2139 18.8177 21.2665C18.3307 21.3496 18.1782 21.3734 18.013 21.3917C17.9183 21.4023 17.8258 21.4201 17.8075 21.4314C17.7892 21.4428 17.862 21.5578 17.9694 21.6872C18.2667 22.0454 18.5215 22.6027 18.6253 23.1218C18.7286 23.6385 18.7376 23.8782 18.7376 26.1436C18.7376 28.4732 18.7384 28.5019 18.8125 28.6339C18.9024 28.7939 18.9564 28.8403 19.1592 28.9318C19.3407 29.0136 19.5825 29.0206 19.8066 28.9504C20.0888 28.862 20.6359 28.6549 20.8935 28.539C20.9816 28.4994 21.1299 28.4333 21.223 28.3922C23.774 27.2657 26.2052 25.1615 27.6828 22.8011C28.09 22.1507 28.5945 21.1994 28.798 20.6987C28.8338 20.6105 28.88 20.4983 28.9007 20.4493C28.9357 20.3665 28.9666 20.2904 29.038 20.1108C29.1025 19.9484 29.2584 19.4975 29.2844 19.3981C29.2998 19.3393 29.3362 19.219 29.3654 19.1309C29.412 18.9902 29.5088 18.6316 29.606 18.24C29.6627 18.0118 29.7076 17.797 29.7476 17.563C29.7694 17.4356 29.8013 17.2512 29.8186 17.1532C29.859 16.9242 29.9176 16.4083 29.9625 15.8863C30.0653 14.6903 29.9528 13.0883 29.6762 11.8081C29.6179 11.5385 29.4933 11.024 29.4646 10.9351C29.4489 10.8861 29.4158 10.7738 29.3911 10.6856C29.3325 10.476 29.1472 9.90369 29.1085 9.81261C29.0918 9.77342 29.0258 9.60505 28.9618 9.43846C28.7774 8.95847 28.3912 8.13572 28.1591 7.72803C27.8662 7.21366 27.2528 6.24962 27.1842 6.19578C27.1717 6.18598 27.1229 6.12184 27.0757 6.05325C27.0285 5.98465 26.8873 5.80025 26.7619 5.64346C25.7915 4.43048 24.6746 3.4095 23.3476 2.52251C23.0276 2.30856 22.7558 2.13353 22.7437 2.13353C22.7316 2.13353 22.6792 2.10392 22.6271 2.06775C22.3948 1.90618 21.0144 1.20705 20.9277 1.20705C20.9182 1.20705 20.8345 1.17338 20.7416 1.13222C20.3843 0.973933 19.7234 0.735899 19.3611 0.635055C19.3023 0.618699 19.1981 0.589444 19.1295 0.570095C17.7633 0.184715 16.3312 -0.00934643 14.9247 0.000345961C14.523 0.00308976 14.0499 0.0188755 13.8735 0.035374ZM5.31074 21.1335C5.24457 21.1996 5.25939 21.2569 5.36401 21.3393C5.47558 21.427 5.61758 21.4222 5.67417 21.3289C5.7067 21.2752 5.69512 21.2493 5.6065 21.1776C5.48994 21.0833 5.37769 21.0665 5.31074 21.1335ZM5.97064 21.6301C5.89973 21.6698 5.89093 21.8299 5.95507 21.9134C6.07131 22.0648 6.27631 22.081 6.32032 21.9424C6.36742 21.7939 6.10181 21.5567 5.97064 21.6301ZM6.52229 22.4163C6.38866 22.5499 6.5731 22.8724 6.7832 22.8724C6.91968 22.8724 6.96297 22.7961 6.92488 22.6226C6.88518 22.442 6.6283 22.3103 6.52229 22.4163ZM7.21597 23.2525C7.15846 23.31 7.19662 23.5136 7.28446 23.618C7.36139 23.7094 7.40241 23.7276 7.53151 23.7276C7.65676 23.7276 7.69076 23.7135 7.70971 23.6538C7.77058 23.462 7.58492 23.2287 7.37144 23.2287C7.299 23.2287 7.22901 23.2394 7.21597 23.2525ZM8.25231 23.9198C8.15353 23.9948 8.17423 24.1392 8.29621 24.226C8.37592 24.2828 8.44405 24.299 8.56874 24.2908C8.75738 24.2785 8.81867 24.2159 8.78265 24.0723C8.74006 23.9026 8.40268 23.8056 8.25231 23.9198ZM10.7689 23.9291C10.7273 23.938 10.6572 23.9836 10.6131 24.0304C10.5063 24.1441 10.5381 24.2728 10.6884 24.3351C10.8392 24.3976 11.0688 24.3211 11.1462 24.1827C11.1965 24.0927 11.1952 24.0801 11.1294 24.0143C11.0545 23.9394 10.8963 23.9021 10.7689 23.9291ZM9.59228 24.073C9.48353 24.0942 9.39377 24.2064 9.40756 24.3037C9.4232 24.4143 9.63857 24.5313 9.76721 24.499C9.81898 24.486 9.90582 24.4372 9.9602 24.3904C10.0522 24.3113 10.0556 24.299 10.0093 24.2125C9.96761 24.1346 9.76265 24.0335 9.68657 24.0534C9.67677 24.0559 9.63433 24.0647 9.59228 24.073Z" fill="#1C3879"/>
</svg>
