<svg width="30" height="29" viewBox="0 0 30 29" fill="none" xmlns="http://www.w3.org/2000/svg">
<path fill-rule="evenodd" clip-rule="evenodd" d="M3.09876 0.00823689C1.85654 0.190182 0.876208 0.836766 0.379736 1.80162C0.105662 2.33429 0.000478091 2.77729 1.31348e-06 3.40106C-0.00120897 4.90958 0.834031 6.09052 2.2662 6.60529C2.80609 6.79934 3.42766 6.86789 4.10058 6.80752C5.71971 6.66236 6.89574 5.7314 7.28409 4.28746C7.42207 3.77448 7.42247 3.09981 7.28508 2.5715C7.02612 1.57581 6.42707 0.819675 5.55515 0.387971C4.98716 0.106746 4.58847 0.0178457 3.83226 0.00372581C3.48935 -0.00265567 3.15927 -0.000638498 3.09876 0.00823689ZM21.8031 8.81395C20.6627 8.92016 19.5569 9.2985 18.6872 9.87984C18.2572 10.1673 17.4739 10.9226 17.1411 11.3707L16.9253 11.6613L16.907 10.4538L16.8886 9.24638H13.5951H10.3016L10.3127 11.1535C10.3269 13.5955 10.3267 16.4331 10.3118 23.2013L10.2998 28.6476L13.6024 28.6569L16.905 28.6663L16.9166 22.7889C16.9295 16.263 16.9111 16.7312 17.1769 16.1493C17.8486 14.6789 19.142 13.9035 20.6467 14.0691C21.1193 14.1211 21.3502 14.1829 21.6893 14.3483C22.5233 14.7552 23.0367 15.5573 23.295 16.8565L23.3788 17.2782L23.3897 22.9721L23.4004 28.6659H26.7002H30V22.7318C30 19.0142 29.9859 16.6135 29.9623 16.3045C29.8269 14.5321 29.3185 12.9219 28.5213 11.7403C27.9936 10.9581 27.2338 10.2355 26.4686 9.78804C25.5779 9.26711 24.6744 8.97576 23.5452 8.84527C23.1002 8.79381 22.1939 8.77753 21.8031 8.81395ZM0.390922 9.25251C0.377462 9.26593 0.36646 13.6394 0.36646 18.9714V28.6659H3.66723H6.96799V18.947V9.22805H3.69169C1.88969 9.22805 0.404345 9.23905 0.390922 9.25251Z" fill="#1C3879"/>
</svg>
