<svg width="16" height="16" viewBox="0 0 16 16" fill="none" xmlns="http://www.w3.org/2000/svg">
<path d="M14 4.5V14C14 14.5304 13.7893 15.0391 13.4142 15.4142C13.0391 15.7893 12.5304 16 12 16H4C3.46957 16 2.96086 15.7893 2.58579 15.4142C2.21071 15.0391 2 14.5304 2 14V2C2 1.46957 2.21071 0.960859 2.58579 0.585786C2.96086 0.210714 3.46957 0 4 0L9.5 0L14 4.5ZM11 4.5C10.6022 4.5 10.2206 4.34196 9.93934 4.06066C9.65804 3.77936 9.5 3.39782 9.5 3V1H4C3.73478 1 3.48043 1.10536 3.29289 1.29289C3.10536 1.48043 3 1.73478 3 2V14C3 14.2652 3.10536 14.5196 3.29289 14.7071C3.48043 14.8946 3.73478 15 4 15H12C12.2652 15 12.5196 14.8946 12.7071 14.7071C12.8946 14.5196 13 14.2652 13 14V4.5H11Z" fill="black"/>
<path d="M8.64601 6.64592C8.69245 6.59935 8.74763 6.56241 8.80838 6.5372C8.86912 6.512 8.93424 6.49902 9.00001 6.49902C9.06578 6.49902 9.1309 6.512 9.19164 6.5372C9.25239 6.56241 9.30756 6.59935 9.35401 6.64592L11.354 8.64592C11.4006 8.69236 11.4375 8.74754 11.4627 8.80828C11.4879 8.86903 11.5009 8.93415 11.5009 8.99992C11.5009 9.06568 11.4879 9.13081 11.4627 9.19155C11.4375 9.2523 11.4006 9.30747 11.354 9.35392L9.35401 11.3539C9.26012 11.4478 9.13278 11.5005 9.00001 11.5005C8.86723 11.5005 8.7399 11.4478 8.64601 11.3539C8.55212 11.26 8.49938 11.1327 8.49938 10.9999C8.49938 10.8671 8.55212 10.7398 8.64601 10.6459L10.293 8.99992L8.64601 7.35392C8.59945 7.30747 8.5625 7.2523 8.5373 7.19155C8.51209 7.13081 8.49911 7.06568 8.49911 6.99992C8.49911 6.93415 8.51209 6.86903 8.5373 6.80828C8.5625 6.74754 8.59945 6.69236 8.64601 6.64592ZM7.35401 6.64592C7.30756 6.59935 7.25239 6.56241 7.19164 6.5372C7.1309 6.512 7.06578 6.49902 7.00001 6.49902C6.93424 6.49902 6.86912 6.512 6.80837 6.5372C6.74763 6.56241 6.69245 6.59935 6.64601 6.64592L4.64601 8.64592C4.59945 8.69236 4.5625 8.74754 4.5373 8.80828C4.51209 8.86903 4.49911 8.93415 4.49911 8.99992C4.49911 9.06568 4.51209 9.13081 4.5373 9.19155C4.5625 9.2523 4.59945 9.30747 4.64601 9.35392L6.64601 11.3539C6.7399 11.4478 6.86723 11.5005 7.00001 11.5005C7.13278 11.5005 7.26012 11.4478 7.35401 11.3539C7.4479 11.26 7.50064 11.1327 7.50064 10.9999C7.50064 10.8671 7.4479 10.7398 7.35401 10.6459L5.70701 8.99992L7.35401 7.35392C7.40057 7.30747 7.43751 7.2523 7.46272 7.19155C7.48793 7.13081 7.5009 7.06568 7.5009 6.99992C7.5009 6.93415 7.48793 6.86903 7.46272 6.80828C7.43751 6.74754 7.40057 6.69236 7.35401 6.64592Z" fill="black"/>
</svg>
