<svg width="32" height="32" viewBox="0 0 32 32" fill="none" xmlns="http://www.w3.org/2000/svg">
<circle opacity="0.75" cx="16" cy="16" r="16" fill="#11234E"/>
<path fill-rule="evenodd" clip-rule="evenodd" d="M17.207 8.78726C15.4456 9.45846 14.0557 11.4582 14.0521 13.3265L14.0502 14.3072L11.507 16.844C9.89155 18.4555 8.88545 19.6183 8.7489 20.032C8.31069 21.3593 8.98717 22.7882 10.2513 23.2053C11.6457 23.6653 12.135 23.393 15.0303 20.544C17.6574 17.9591 17.7108 17.9196 18.5778 17.9196C20.4016 17.9196 22.1756 16.8768 22.9723 15.3363C23.408 14.494 23.5201 12.7217 23.2038 11.6749L22.9418 10.8083L21.8901 12.0171C20.8463 13.2169 20.8306 13.2259 19.7918 13.2259H18.7452V12.1697C18.7452 11.1204 18.7533 11.1065 19.9343 10.0835C20.9099 9.23864 21.0673 9.02253 20.8111 8.87918C20.2721 8.57761 17.915 8.51757 17.207 8.78726Z" fill="white"/>
</svg>
