<?xml version="1.0" encoding="iso-8859-1"?>
<!-- Uploaded to: SVG Repo, www.svgrepo.com, Generator: SVG Repo Mixer Tools -->
<svg fill="#000000" height="35px" width="35px" version="1.1" id="Layer_1" xmlns="http://www.w3.org/2000/svg" xmlns:xlink="http://www.w3.org/1999/xlink" 
	 viewBox="0 0 512 512" xml:space="preserve">
<g>
	<g>
		<path d="M231.5,145.59c-0.132-26.399-21.717-47.876-48.117-47.876h-20.004c-5.086,13.19-17.909,46.447-21.753,56.417
			l40.699,18.683v-27.56c0-2.354,1.908-4.261,4.26-4.261c2.354,0,4.261,1.907,4.263,4.26c0,0.177-0.004,0.357-0.013,0.542
			l0.373,146.776c0,11.23,9.103,20.333,20.333,20.333c11.23,0,20.333-9.103,20.333-20.333L231.5,145.59z" fill="#1C3879"/>
	</g>
</g>
<g>
	<g>
		<path d="M74.624,265.204l0.01,221.812c0,13.23,10.289,24.499,23.511,24.968c13.881,0.493,25.288-10.613,25.288-24.383V292.571
			h9.021C131.184,292.089,74.624,265.204,74.624,265.204z" fill="#1C3879"/>
	</g>
</g>
<g>
	<g>
		<path d="M182.325,239.742l-18.309,39.882c-5.133,11.18-17.922,17.201-30.047,13.464V487.6c0,13.476,10.923,24.399,24.399,24.399
			c13.476,0,24.4-10.923,24.4-24.399C182.768,484.245,182.325,243.091,182.325,239.742z" fill="#1C3879"/>
	</g>
</g>
<g>
	<g>
		<path d="M142.524,130.797l-8.266-15.035l7.335-13.34c1.093-1.989-0.348-4.429-2.619-4.429h-20.152
			c-2.269,0-3.715,2.438-2.619,4.429l7.35,13.368l-8.282,15.062c-0.963,1.747-1.277,3.778-0.888,5.736l2.817,14.187
			c10.504-3.781,18.162,0.48,22.65,2.54l3.539-16.673C143.811,134.653,143.504,132.578,142.524,130.797z" fill="#1C3879"/>
	</g>
</g>
<g>
	<g>
		<path d="M178.345,188.491l-48.928-22.461c-4.567-2.096-9.962-0.089-12.054,4.469l-12.604,27.457l24.808,13.783
			c17.722,9.848,24.108,32.197,14.261,49.919c-3.057,5.5-7.326,9.895-12.28,13.066l5.957,2.735
			c4.565,2.095,9.961,0.091,12.054-4.469l33.255-72.443C184.909,195.983,182.909,190.585,178.345,188.491z" fill="#1C3879"/>
	</g>
</g>
<g>
	<g>
		<circle cx="128.691" cy="42.14" r="42.14" fill="#1C3879"/>
	</g>
</g>
<g>
	<g>
		<path d="M121.614,226.054l-55.362-30.759c0.102-16.625,0.203-33.052,0.305-49.5c0.011-2.225,1.82-4.02,4.045-4.015
			c2.224,0.006,4.024,1.81,4.024,4.035v35.396l16.188,8.994l12.093-26.344c2.532-5.517,6.953-9.815,12.282-12.273
			c-3.74-9.702-16.622-43.112-20.773-53.876H74.008c-26.399,0-47.984,21.476-48.117,47.853c-0.047,7.532-0.333,54.067-0.379,61.526
			c-0.046,7.428,3.964,14.29,10.458,17.898l65.893,36.61c9.825,5.462,22.2,1.91,27.649-7.896
			C134.966,243.887,131.43,231.508,121.614,226.054z" fill="#1C3879"/>
	</g>
</g>
<g>
	<g>
		<path d="M340.817,190.28c-0.978-3.082-4.269-4.788-7.352-3.81l-22.167,7.034l-3.576-11.265c-0.785-2.471-4.079-2.96-5.547-0.823
			l-13.161,19.159l22.438,70.713c0.627,1.977,2.739,3.071,4.716,2.445l9.39-2.98c-3.237-7.113-3.356-15.176-0.484-22.241
			c4.604-11.33,16.095-18.596,28.696-17.414L340.817,190.28z" fill="#1C3879"/>
	</g>
</g>
<g>
	<g>
		<path d="M463.687,219.636h-38.883c-12.042,0-21.805,10.441-21.805,23.321v6.722l44.583-15.932l-45.082,30.736l-45.976-18.678
			c-7.342-2.984-15.722,0.583-18.69,7.892c-2.98,7.336,0.547,15.714,7.892,18.69c41.961,17.047,31.485,12.791,53.101,21.573
			c4.403,1.788,9.534,1.252,13.481-1.438l49.782-33.941l-39.629,43.245c-3.341,3.647-11.024,7.298-19.464,6.932
			c0,0-0.441-1.395-0.441,185.071c0,10.036,8.136,18.173,18.173,18.173c2.718,0,5.287-0.613,7.602-1.682
			c-2.872-4.828-4.527-10.465-4.527-16.49V362.606h14.135v131.22c0,10.036,8.136,18.173,18.173,18.173s18.173-8.136,18.173-18.173
			V361.448c6.547-2.5,11.205-8.823,11.205-16.249c0-11.377,0-91.365,0-102.244C485.492,230.077,475.729,219.636,463.687,219.636z" fill="#1C3879"/>
	</g>
</g>
<g>
	<g>
		<circle cx="444.074" cy="167.003" r="42.415" fill="#1C3879"/>
	</g>
</g>
</svg>