<svg width="18" height="18" viewBox="0 0 18 18" fill="none" xmlns="http://www.w3.org/2000/svg">
<path d="M15.409 4.21014C15.4002 4.19432 15.3879 4.1785 15.3738 4.1662C15.2859 4.07831 15.1436 4.07831 15.0557 4.1662L12.027 7.19491L10.8334 6.00135L13.8639 2.97088C13.8779 2.95682 13.8885 2.94276 13.899 2.92694C13.9623 2.81971 13.9271 2.6826 13.8199 2.61932C12.0938 1.59979 9.8332 1.83358 8.34785 3.31717C7.17012 4.49491 6.77988 6.16483 7.17891 7.666L2.02852 12.8164C1.97578 12.8691 1.9793 12.9553 2.03379 13.0098L5.0168 15.9928C5.07129 16.0473 5.15918 16.0508 5.21016 15.998L10.3588 10.8494C11.8617 11.2502 13.5316 10.8617 14.7111 9.68221C16.1947 8.19686 16.4285 5.93631 15.409 4.21014ZM13.8164 8.78573C12.7951 9.80702 11.2623 10.0039 10.0441 9.37635L9.88945 9.53104L9.8877 9.52928L5.07129 14.3474L3.6791 12.9553L7.72383 8.91053C7.72383 8.91053 7.72383 8.91229 7.72559 8.91229L8.65371 7.98417C8.02617 6.766 8.22305 5.23319 9.24434 4.2119C9.57372 3.88222 9.97039 3.62752 10.4072 3.46522C10.8441 3.30292 11.3108 3.23683 11.7756 3.27147L9.43945 5.60584C9.33394 5.71148 9.27467 5.85468 9.27467 6.00399C9.27467 6.1533 9.33394 6.2965 9.43945 6.40213L11.6279 8.59061C11.7336 8.69613 11.8768 8.7554 12.0261 8.7554C12.1754 8.7554 12.3186 8.69613 12.4242 8.59061L14.7586 6.25624C14.8236 7.16678 14.5055 8.09842 13.8164 8.78573Z" fill="black"/>
</svg>
